<?xml version="1.0" encoding="UTF-8"?>
<svg width="8px" height="8px" viewBox="0 0 8 8" version="1.1" xmlns="http://www.w3.org/2000/svg" xmlns:xlink="http://www.w3.org/1999/xlink">
    <!-- Generator: Sketch 56.2 (81672) - https://sketch.com -->
    <title>BorderInner</title>
    <desc>Created with Sketch.</desc>
    <g id="Inner-Border" stroke="none" stroke-width="1" fill="none" fill-rule="evenodd">
        <g id="BorderInner" transform="translate(4.000000, 4.000000) scale(-1, -1) translate(-4.000000, -4.000000) translate(-1.000000, -1.000000)" fill="#3C3D76" fill-rule="nonzero">
            <g id="Bottom-Left" transform="translate(3.333333, 7.333333) rotate(-270.000000) translate(-3.333333, -7.333333) translate(1.333333, 4.333333)">
                <polygon id="Path" points="2.66666667 0.333333333 3.66666667 0.333333333 3.66666667 1.33333333 2.66666667 1.33333333"></polygon>
                <polygon id="Path" points="2.66666667 1.33333333 3.66666667 1.33333333 3.66666667 2.33333333 2.66666667 2.33333333"></polygon>
                <polygon id="Path" points="1.66666667 2.33333333 2.66666667 2.33333333 2.66666667 3.33333333 1.66666667 3.33333333"></polygon>
                <polygon id="Path" points="2.66666667 2.33333333 3.66666667 2.33333333 3.66666667 3.33333333 2.66666667 3.33333333"></polygon>
                <polygon id="Path" points="0.666666667 3.33333333 1.66666667 3.33333333 1.66666667 4.33333333 0.666666667 4.33333333"></polygon>
                <polygon id="Path" points="1.66666667 3.33333333 2.66666667 3.33333333 2.66666667 4.33333333 1.66666667 4.33333333"></polygon>
                <polygon id="Path" points="0.666666667 4.33333333 1.66666667 4.33333333 1.66666667 5.33333333 0.666666667 5.33333333"></polygon>
            </g>
            <g id="Top-Left" transform="translate(2.666667, 3.333333) rotate(-180.000000) translate(-2.666667, -3.333333) translate(0.666667, 0.333333)">
                <polygon id="Path" points="2.66666667 0.333333333 3.66666667 0.333333333 3.66666667 1.33333333 2.66666667 1.33333333"></polygon>
                <polygon id="Path" points="2.66666667 1.33333333 3.66666667 1.33333333 3.66666667 2.33333333 2.66666667 2.33333333"></polygon>
                <polygon id="Path" points="1.66666667 2.33333333 2.66666667 2.33333333 2.66666667 3.33333333 1.66666667 3.33333333"></polygon>
                <polygon id="Path" points="2.66666667 2.33333333 3.66666667 2.33333333 3.66666667 3.33333333 2.66666667 3.33333333"></polygon>
                <polygon id="Path" points="0.666666667 3.33333333 1.66666667 3.33333333 1.66666667 4.33333333 0.666666667 4.33333333"></polygon>
                <polygon id="Path" points="1.66666667 3.33333333 2.66666667 3.33333333 2.66666667 4.33333333 1.66666667 4.33333333"></polygon>
                <polygon id="Path" points="0.666666667 4.33333333 1.66666667 4.33333333 1.66666667 5.33333333 0.666666667 5.33333333"></polygon>
            </g>
            <g id="Bottom-Right" transform="translate(6.000000, 4.000000)">
                <polygon id="Path" points="2 0 3 0 3 1 2 1"></polygon>
                <polygon id="Path" points="2 1 3 1 3 2 2 2"></polygon>
                <polygon id="Path" points="1 2 2 2 2 3 1 3"></polygon>
                <polygon id="Path" points="2 2 3 2 3 3 2 3"></polygon>
                <polygon id="Path" points="0 3 1 3 1 4 0 4"></polygon>
                <polygon id="Path" points="1 3 2 3 2 4 1 4"></polygon>
                <polygon id="Path" points="0 4 1 4 1 5 0 5"></polygon>
            </g>
            <g id="Top-Right" transform="translate(6.666667, 2.666667) rotate(-90.000000) translate(-6.666667, -2.666667) translate(4.666667, -0.333333)">
                <polygon id="Path" points="2.66666667 0.333333333 3.66666667 0.333333333 3.66666667 1.33333333 2.66666667 1.33333333"></polygon>
                <polygon id="Path" points="2.66666667 1.33333333 3.66666667 1.33333333 3.66666667 2.33333333 2.66666667 2.33333333"></polygon>
                <polygon id="Path" points="1.66666667 2.33333333 2.66666667 2.33333333 2.66666667 3.33333333 1.66666667 3.33333333"></polygon>
                <polygon id="Path" points="2.66666667 2.33333333 3.66666667 2.33333333 3.66666667 3.33333333 2.66666667 3.33333333"></polygon>
                <polygon id="Path" points="0.666666667 3.33333333 1.66666667 3.33333333 1.66666667 4.33333333 0.666666667 4.33333333"></polygon>
                <polygon id="Path" points="1.66666667 3.33333333 2.66666667 3.33333333 2.66666667 4.33333333 1.66666667 4.33333333"></polygon>
                <polygon id="Path" points="0.666666667 4.33333333 1.66666667 4.33333333 1.66666667 5.33333333 0.666666667 5.33333333"></polygon>
            </g>
        </g>
    </g>
</svg>