<?xml version="1.0" encoding="UTF-8"?>
<svg width="12px" height="12px" viewBox="0 0 12 12" version="1.1" xmlns="http://www.w3.org/2000/svg" xmlns:xlink="http://www.w3.org/1999/xlink">
    <!-- Generator: Sketch 56.2 (81672) - https://sketch.com -->
    <title>BorderOuter</title>
    <desc>Created with Sketch.</desc>
    <g id="Outer-Border" stroke="none" stroke-width="1" fill="none" fill-rule="evenodd">
        <g id="BorderOuter" transform="translate(0.000000, 0.000000)" fill="#3C3D76" fill-rule="nonzero">
            <g id="Bottom-Right" transform="translate(6.000000, 6.000000)">
                <polygon id="Path" points="5 0 6 0 6 1 5 1"></polygon>
                <polygon id="Path" points="5 1 6 1 6 2 5 2"></polygon>
                <polygon id="Path" points="4 2 5 2 5 3 4 3"></polygon>
                <polygon id="Path" points="5 2 6 2 6 3 5 3"></polygon>
                <polygon id="Path" points="3 3 4 3 4 4 3 4"></polygon>
                <polygon id="Path" points="4 3 5 3 5 4 4 4"></polygon>
                <polygon id="Path" points="2 4 3 4 3 5 2 5"></polygon>
                <polygon id="Path" points="3 4 4 4 4 5 3 5"></polygon>
                <polygon id="Path" points="0 5 1 5 1 6 0 6"></polygon>
                <polygon id="Path" points="1 5 2 5 2 6 1 6"></polygon>
                <polygon id="Path" points="2 5 3 5 3 6 2 6"></polygon>
            </g>
            <g id="Bottom-Left" transform="translate(3.000000, 9.000000) rotate(-270.000000) translate(-3.000000, -9.000000) translate(-0.000000, 6.000000)">
                <polygon id="Path" points="5 0 6 0 6 1 5 1"></polygon>
                <polygon id="Path" points="5 1 6 1 6 2 5 2"></polygon>
                <polygon id="Path" points="4 2 5 2 5 3 4 3"></polygon>
                <polygon id="Path" points="5 2 6 2 6 3 5 3"></polygon>
                <polygon id="Path" points="3 3 4 3 4 4 3 4"></polygon>
                <polygon id="Path" points="4 3 5 3 5 4 4 4"></polygon>
                <polygon id="Path" points="2 4 3 4 3 5 2 5"></polygon>
                <polygon id="Path" points="3 4 4 4 4 5 3 5"></polygon>
                <polygon id="Path" points="0 5 1 5 1 6 0 6"></polygon>
                <polygon id="Path" points="1 5 2 5 2 6 1 6"></polygon>
                <polygon id="Path" points="2 5 3 5 3 6 2 6"></polygon>
            </g>
            <g id="Top-Right" transform="translate(9.000000, 3.000000) rotate(-90.000000) translate(-9.000000, -3.000000) translate(6.000000, 0.000000)">
                <polygon id="Path" points="5 0 6 0 6 1 5 1"></polygon>
                <polygon id="Path" points="5 1 6 1 6 2 5 2"></polygon>
                <polygon id="Path" points="4 2 5 2 5 3 4 3"></polygon>
                <polygon id="Path" points="5 2 6 2 6 3 5 3"></polygon>
                <polygon id="Path" points="3 3 4 3 4 4 3 4"></polygon>
                <polygon id="Path" points="4 3 5 3 5 4 4 4"></polygon>
                <polygon id="Path" points="2 4 3 4 3 5 2 5"></polygon>
                <polygon id="Path" points="3 4 4 4 4 5 3 5"></polygon>
                <polygon id="Path" points="0 5 1 5 1 6 0 6"></polygon>
                <polygon id="Path" points="1 5 2 5 2 6 1 6"></polygon>
                <polygon id="Path" points="2 5 3 5 3 6 2 6"></polygon>
            </g>
            <g id="Top-Left" transform="translate(3.000000, 3.000000) rotate(-180.000000) translate(-3.000000, -3.000000) translate(-0.000000, 0.000000)">
                <polygon id="Path" points="5 0 6 0 6 1 5 1"></polygon>
                <polygon id="Path" points="5 1 6 1 6 2 5 2"></polygon>
                <polygon id="Path" points="4 2 5 2 5 3 4 3"></polygon>
                <polygon id="Path" points="5 2 6 2 6 3 5 3"></polygon>
                <polygon id="Path" points="3 3 4 3 4 4 3 4"></polygon>
                <polygon id="Path" points="4 3 5 3 5 4 4 4"></polygon>
                <polygon id="Path" points="2 4 3 4 3 5 2 5"></polygon>
                <polygon id="Path" points="3 4 4 4 4 5 3 5"></polygon>
                <polygon id="Path" points="0 5 1 5 1 6 0 6"></polygon>
                <polygon id="Path" points="1 5 2 5 2 6 1 6"></polygon>
                <polygon id="Path" points="2 5 3 5 3 6 2 6"></polygon>
            </g>
        </g>
    </g>
</svg>